<svg width="41" height="27" viewBox="0 0 41 27" fill="none" xmlns="http://www.w3.org/2000/svg">
<path d="M5.02651 11.3471C5.02651 11.3471 8.61219 6.08729 15.7716 5.54314V3.63488C7.84164 4.26806 0.974609 10.9455 0.974609 10.9455C0.974609 10.9455 4.86398 22.1239 15.7716 23.1476V21.1192C7.76707 20.118 5.02651 11.3471 5.02651 11.3471V11.3471ZM15.7716 17.0854V18.9431C9.72196 17.8706 8.04272 11.6185 8.04272 11.6185C8.04272 11.6185 10.9474 8.41931 15.7716 7.9005V9.93882C15.7679 9.93882 15.7654 9.93771 15.7624 9.93771C13.2304 9.63561 11.2524 11.9873 11.2524 11.9873C11.2524 11.9873 12.361 15.946 15.7716 17.0854ZM15.7716 0.115234V3.63488C16.0044 3.61714 16.2372 3.60209 16.4712 3.59417C25.4867 3.29207 31.361 10.9455 31.361 10.9455C31.361 10.9455 24.6142 19.102 17.5853 19.102C16.9411 19.102 16.338 19.0426 15.7716 18.9428V21.1192C16.2726 21.1832 16.7771 21.2156 17.2823 21.2162C23.8231 21.2162 28.5533 17.895 33.1336 13.9643C33.893 14.569 37.0019 16.04 37.641 16.6838C33.286 20.3089 23.1366 23.231 17.3825 23.231C16.8278 23.231 16.2952 23.1976 15.7716 23.1474V26.2057H40.633V0.115234H15.7716ZM15.7716 7.90034V5.5433C16.002 5.5273 16.2341 5.51494 16.4712 5.5075C22.9543 5.30504 27.2076 11.0465 27.2076 11.0465C27.2076 11.0465 22.6136 17.3897 17.6879 17.3897C16.979 17.3897 16.3435 17.2764 15.7714 17.0852V9.93866C18.2953 10.2419 18.8033 11.3503 20.3206 13.8651L23.6955 11.036C23.6955 11.036 21.232 7.82383 17.0793 7.82383C16.6277 7.82367 16.1957 7.8552 15.7716 7.90034" fill="#263238"/>
</svg>
