<svg width="160" height="45" viewBox="0 0 160 45" fill="none" xmlns="http://www.w3.org/2000/svg">
<path d="M38.464 43.211C19.9051 43.211 4.77092 33.8797 4.77092 22.4365C4.77092 19.6308 5.68331 16.951 7.33104 14.5058C9.62477 14.5791 14.3096 15.1534 14.7897 17.227L18.4185 32.9546H21.0105L24.9855 18.9816L29.4725 32.9641H32.0613L35.1191 17.5237C35.5163 15.6351 35.9581 14.7562 37.3666 14.5504C38.3236 14.694 38.8915 15.1884 38.8915 16.8553V30.026C38.8915 32.1857 37.9344 32.3883 36.3856 32.3883V32.9641H49.8673L50.0268 29.8425L51.5039 32.9386C53.0256 33.1492 54.5599 33.2557 56.0961 33.2576C60.0424 33.2576 63.2102 31.5286 63.2102 27.8694C63.2102 25.1338 61.6853 23.9535 59.4091 22.628C56.9033 21.1589 53.1404 20.323 53.1404 17.7581C53.1404 15.8584 54.8392 14.619 56.7693 14.619C59.851 14.619 61.7826 16.4055 62.0426 17.932H62.7636L62.0905 13.9858C60.5192 13.6615 58.9191 13.4975 57.3148 13.4961C53.686 13.4961 50.8355 14.9077 50.8355 18.3643C50.8355 20.2066 51.775 21.245 53.0415 22.2244C55.7213 24.2709 60.5018 25.22 60.5018 28.3304C60.5018 30.3195 58.8604 31.9608 56.3258 31.9608C53.7912 31.9608 50.6489 30.7087 50.424 29.1678H49.3425C48.9103 31.1537 48.017 31.846 45.7998 31.846H43.0419C41.6063 31.846 41.458 31.6721 41.458 29.4262V23.4829H45.173C47.1046 23.4829 47.7953 24.29 47.7953 25.9043H48.3998V19.9386H47.7953C47.7953 21.9245 47.1046 22.3568 45.173 22.3568H41.458V17.3163C41.458 15.214 41.5457 14.8965 43.0419 14.8965H45.5765C47.623 14.8965 48.5737 15.5346 48.9182 17.2892H49.6392L49.4366 13.78H31.1186V14.4994C32.7025 14.4994 33.4809 14.7019 33.4809 16.112C33.4573 16.5594 33.3894 17.0034 33.2784 17.4375L31.0277 29.3337H30.9687L25.7878 13.7768H24.8706L20.4634 29.3305H20.406L17.5827 16.8888C17.4811 16.4928 17.4233 16.0868 17.4104 15.6781C17.4104 14.93 17.9591 14.4978 20.0311 14.4978V13.7768H7.84944C13.1914 6.63877 24.9169 1.66208 38.464 1.66208C57.0213 1.66208 72.1571 10.995 72.1571 22.4365C72.1571 33.8781 57.0213 43.211 38.464 43.211ZM38.464 0C17.278 0 0 10.0794 0 22.4365C0 34.7937 17.278 44.8747 38.464 44.8747C59.65 44.8747 76.928 34.7953 76.928 22.4365C76.928 10.0778 59.6564 0 38.464 0Z" fill="#263238"/>
<path d="M70.1484 4.30682C70.1621 4.43425 70.1295 4.56236 70.0566 4.66777C69.9837 4.77318 69.8753 4.84888 69.7512 4.88105L70.2298 5.54939H69.8358L69.3955 4.9305H68.9888V5.54939H68.6777V3.70866H69.362C69.573 3.69073 69.7842 3.74046 69.965 3.85062C70.0291 3.90699 70.0791 3.97764 70.111 4.05688C70.1429 4.13612 70.1557 4.22172 70.1484 4.30682V4.30682ZM69.7369 4.56841C69.7706 4.53421 69.7964 4.49311 69.8126 4.44795C69.8289 4.40278 69.8352 4.35463 69.831 4.30682C69.8366 4.26053 69.8306 4.21359 69.8136 4.17017C69.7966 4.12675 69.7692 4.08821 69.7337 4.05798C69.6265 4.00275 69.5061 3.97845 69.386 3.9878H68.992V4.64657H69.386C69.5085 4.65827 69.6315 4.63031 69.7369 4.56682V4.56841Z" fill="#263238"/>
<path d="M69.3977 6.36913C69.0589 6.36913 68.7277 6.26865 68.4459 6.08041C68.1642 5.89217 67.9446 5.62462 67.815 5.31158C67.6853 4.99855 67.6514 4.6541 67.7175 4.32178C67.7836 3.98947 67.9467 3.68422 68.1863 3.44464C68.4259 3.20505 68.7312 3.04189 69.0635 2.97579C69.3958 2.90969 69.7403 2.94361 70.0533 3.07328C70.3663 3.20294 70.6339 3.42251 70.8221 3.70424C71.0103 3.98596 71.1108 4.31717 71.1108 4.656V4.656C71.11 5.11009 70.9292 5.54534 70.6081 5.86643C70.287 6.18752 69.8518 6.36828 69.3977 6.36913V6.36913ZM69.3977 3.22201C69.1138 3.22201 68.8362 3.30621 68.6001 3.46395C68.364 3.6217 68.1801 3.8459 68.0714 4.10822C67.9627 4.37054 67.9343 4.65919 67.9897 4.93766C68.0451 5.21614 68.1818 5.47193 68.3826 5.6727C68.5834 5.87347 68.8392 6.0102 69.1176 6.06559C69.3961 6.12098 69.6848 6.09255 69.9471 5.9839C70.2094 5.87524 70.4336 5.69124 70.5913 5.45516C70.7491 5.21908 70.8333 4.94153 70.8333 4.65759C70.8333 4.27685 70.682 3.91171 70.4128 3.64248C70.1436 3.37326 69.7784 3.22201 69.3977 3.22201Z" fill="#263238"/>
<path d="M95.9373 6.08057L93.1874 14.5617H90.6193L88.9955 9.39995L87.2999 14.5617H84.7302L81.9883 6.08057H84.4607L86.169 11.4959L87.9539 6.08057H90.1583L91.8667 11.5453L93.6484 6.08057H95.9373Z" fill="#263238"/>
<path d="M98.4995 14.1626C97.7984 13.7956 97.211 13.2436 96.8012 12.5665C96.3914 11.8894 96.1748 11.1131 96.1748 10.3216C96.1748 9.5302 96.3914 8.75387 96.8012 8.07679C97.211 7.39971 97.7984 6.84772 98.4995 6.48066C99.2505 6.10673 100.078 5.91211 100.917 5.91211C101.756 5.91211 102.583 6.10673 103.334 6.48066C104.036 6.84391 104.623 7.39587 105.029 8.07443C105.434 8.75299 105.642 9.53125 105.63 10.3216C105.642 11.1119 105.433 11.89 105.028 12.5684C104.622 13.2469 104.036 13.7989 103.334 14.1626C102.583 14.5366 101.756 14.7312 100.917 14.7312C100.078 14.7312 99.2505 14.5366 98.4995 14.1626ZM102.085 12.4415C102.434 12.2382 102.719 11.9423 102.91 11.5865C103.109 11.1944 103.213 10.7607 103.213 10.3208C103.213 9.88097 103.109 9.44732 102.91 9.05514C102.719 8.69939 102.434 8.40344 102.085 8.20017C101.73 8.00239 101.329 7.8986 100.922 7.8986C100.516 7.8986 100.115 8.00239 99.7596 8.20017C99.4111 8.40305 99.1261 8.69914 98.9366 9.05514C98.7288 9.44441 98.6245 9.88049 98.6335 10.3216C98.6247 10.7623 98.7291 11.1978 98.9366 11.5865C99.1243 11.9417 99.4071 12.2377 99.7533 12.4415C100.109 12.6413 100.511 12.7462 100.919 12.7462C101.328 12.7462 101.729 12.6413 102.085 12.4415V12.4415Z" fill="#263238"/>
<path d="M110.539 12.3076H109.232V14.5615H106.839V6.08037H110.717C111.402 6.06467 112.083 6.19461 112.715 6.4616C113.256 6.68593 113.715 7.07016 114.031 7.56279C114.347 8.05543 114.505 8.63294 114.484 9.21792C114.496 9.78401 114.345 10.3416 114.049 10.8242C113.75 11.2917 113.323 11.6637 112.819 11.8961L114.648 14.5615H112.08L110.539 12.3076ZM111.675 8.29436C111.424 8.07541 111.052 7.96641 110.559 7.96736H109.225V10.4541H110.559C111.05 10.4541 111.422 10.3478 111.675 10.1351C111.803 10.0207 111.903 9.87896 111.968 9.72041C112.033 9.56186 112.062 9.39063 112.052 9.21951C112.062 9.04697 112.034 8.8743 111.968 8.71419C111.903 8.55409 111.803 8.41062 111.675 8.29436V8.29436Z" fill="#263238"/>
<path d="M115.976 6.08057H118.368V12.6603H122.423V14.5617H115.976V6.08057Z" fill="#263238"/>
<path d="M123.549 6.08061H127.559C128.412 6.06432 129.257 6.2427 130.031 6.60221C130.72 6.92221 131.301 7.43535 131.703 8.07926C132.109 8.75574 132.314 9.53334 132.296 10.322C132.314 11.1101 132.109 11.8872 131.703 12.5631C131.3 13.2057 130.719 13.7177 130.031 14.0369C129.257 14.3964 128.412 14.5748 127.559 14.5585H123.549V6.08061ZM127.463 12.6476C128.189 12.6476 128.773 12.4418 129.218 12.0303C129.662 11.6188 129.882 11.0493 129.878 10.322C129.878 9.5946 129.658 9.02515 129.218 8.61362C128.778 8.20208 128.193 7.99579 127.463 7.99472H125.948V12.6476H127.463Z" fill="#263238"/>
<path d="M89.4432 24.8244V26.6779H82.6338V18.1968H89.2853V20.0503H85.0089V21.4859H88.7765V23.2803H85.0089V24.8308L89.4432 24.8244Z" fill="#263238"/>
<path d="M90.9561 18.1968H94.9677C95.8201 18.1808 96.6649 18.3586 97.4385 18.7168C98.1271 19.0375 98.7078 19.5511 99.1102 20.1954C99.5 20.8783 99.705 21.651 99.705 22.4373C99.705 23.2236 99.5 23.9964 99.1102 24.6792C98.7086 25.3246 98.1277 25.839 97.4385 26.1595C96.6653 26.5189 95.8203 26.6973 94.9677 26.6811H90.9561V18.1968ZM94.8704 24.7638C95.5978 24.7638 96.18 24.558 96.625 24.1465C97.07 23.7349 97.2854 23.1639 97.2854 22.4365C97.2854 21.7092 97.0637 21.1413 96.625 20.7282C96.1864 20.3151 95.601 20.1109 94.8704 20.1109H93.3551V24.7638H94.8704Z" fill="#263238"/>
<path d="M101.88 25.8181C101.181 25.1301 100.832 24.1566 100.832 22.8975V18.1968H103.225V22.8225C103.225 24.1784 103.762 24.8568 104.836 24.8579C105.91 24.8589 106.441 24.1805 106.431 22.8225V18.1968H108.795V22.8975C108.795 24.1576 108.445 25.1312 107.747 25.8181C107.048 26.5051 106.069 26.848 104.809 26.847C103.555 26.847 102.579 26.504 101.88 25.8181Z" fill="#263238"/>
<path d="M112.202 26.2838C111.513 25.9245 110.938 25.3811 110.54 24.7142C110.143 24.0208 109.934 23.2356 109.934 22.4364C109.934 21.6373 110.143 20.8521 110.54 20.1586C110.939 19.4922 111.516 18.9495 112.205 18.5907C112.943 18.207 113.766 18.013 114.598 18.026C115.318 18.0154 116.032 18.1562 116.694 18.4391C117.3 18.7015 117.832 19.109 118.244 19.6259L116.718 21.0072C116.167 20.3458 115.501 20.0146 114.719 20.0135C114.29 20.0061 113.866 20.1106 113.489 20.3166C113.133 20.5143 112.842 20.8113 112.652 21.1715C112.457 21.5649 112.355 21.9981 112.355 22.4372C112.355 22.8763 112.457 23.3095 112.652 23.7029C112.842 24.0631 113.133 24.3602 113.489 24.5579C113.866 24.7639 114.29 24.8684 114.719 24.861C115.503 24.861 116.169 24.5297 116.718 23.8672L118.244 25.2486C117.832 25.7654 117.3 26.173 116.694 26.4353C116.031 26.7177 115.317 26.8579 114.598 26.8469C113.765 26.8609 112.941 26.6674 112.202 26.2838V26.2838Z" fill="#263238"/>
<path d="M125.487 25.0301H121.902L121.235 26.6779H118.788L122.532 18.1968H124.896L128.652 26.6779H126.154L125.487 25.0301ZM124.786 23.2612L123.695 20.5495L122.605 23.2612H124.786Z" fill="#263238"/>
<path d="M130.649 20.0981H128.044V18.1968H135.641V20.0981H133.048V26.6779H130.655L130.649 20.0981Z" fill="#263238"/>
<path d="M136.718 18.1968H139.11V26.6779H136.718V18.1968Z" fill="#263238"/>
<path d="M142.867 26.2773C142.166 25.91 141.579 25.3581 141.17 24.6812C140.76 24.0043 140.544 23.2282 140.544 22.4371C140.544 21.6459 140.76 20.8699 141.17 20.193C141.579 19.516 142.166 18.9641 142.867 18.5969C143.618 18.2214 144.445 18.0259 145.285 18.0259C146.124 18.0259 146.951 18.2214 147.702 18.5969C148.403 18.9641 148.99 19.516 149.399 20.193C149.809 20.8699 150.025 21.6459 150.025 22.4371C150.025 23.2282 149.809 24.0043 149.399 24.6812C148.99 25.3581 148.403 25.91 147.702 26.2773C146.951 26.6512 146.123 26.8458 145.285 26.8458C144.446 26.8458 143.618 26.6512 142.867 26.2773ZM146.448 24.5641C146.796 24.3603 147.081 24.0645 147.271 23.7092C147.47 23.317 147.574 22.8833 147.574 22.4435C147.574 22.0036 147.47 21.5699 147.271 21.1777C147.081 20.8224 146.796 20.5266 146.448 20.3228C146.092 20.1247 145.692 20.0208 145.285 20.0208C144.877 20.0208 144.477 20.1247 144.121 20.3228C143.772 20.5257 143.487 20.8217 143.298 21.1777C143.099 21.5699 142.995 22.0036 142.995 22.4435C142.995 22.8833 143.099 23.317 143.298 23.7092C143.487 24.0652 143.772 24.3612 144.121 24.5641C144.477 24.7622 144.877 24.8661 145.285 24.8661C145.692 24.8661 146.092 24.7622 146.448 24.5641V24.5641Z" fill="#263238"/>
<path d="M159.509 18.1968V26.6779H157.534L153.791 22.159V26.6779H151.439V18.1968H153.414L157.158 22.7157V18.1968H159.509Z" fill="#263238"/>
<path d="M83.6144 38.7098C83.0538 38.5774 82.5209 38.3474 82.04 38.0303L82.828 36.2613C83.665 36.7942 84.6337 37.0836 85.6258 37.0972C86.5478 37.0972 87.0082 36.8669 87.0071 36.4065C87.0061 36.2867 86.9676 36.1702 86.8969 36.0735C86.8262 35.9768 86.727 35.9047 86.6132 35.8673C86.2035 35.7066 85.7801 35.5833 85.3483 35.4989C84.8071 35.388 84.2742 35.2403 83.7532 35.057C83.3283 34.9004 82.9494 34.6399 82.651 34.2994C82.3435 33.9516 82.1899 33.4832 82.19 32.8941C82.1848 32.3949 82.3329 31.9061 82.6143 31.4936C82.9329 31.0497 83.3725 30.7069 83.8808 30.5062C84.5363 30.2484 85.2375 30.1263 85.9416 30.1474C86.4962 30.1477 87.049 30.2108 87.5894 30.3356C88.0932 30.4453 88.5773 30.6314 89.0249 30.8875L88.2864 32.6676C87.5696 32.2566 86.7613 32.0317 85.9352 32.0136C85.4567 32.0136 85.1122 32.0854 84.8936 32.2258C84.7968 32.2817 84.7163 32.3621 84.6603 32.459C84.6043 32.5559 84.5747 32.6658 84.5746 32.7777C84.5777 32.8924 84.6168 33.0033 84.6863 33.0946C84.7559 33.1859 84.8524 33.2531 84.9622 33.2865C85.3663 33.4417 85.7839 33.5591 86.2096 33.6374C86.7547 33.747 87.2914 33.8946 87.8159 34.0793C88.2388 34.2364 88.6172 34.4943 88.9181 34.8305C89.2291 35.1751 89.3838 35.6408 89.3838 36.231C89.389 36.7236 89.2413 37.2056 88.9611 37.6108C88.6378 38.0544 88.1953 38.3973 87.6851 38.5997C87.031 38.862 86.3302 38.9874 85.6258 38.9682C84.947 38.9692 84.2709 38.8823 83.6144 38.7098V38.7098Z" fill="#263238"/>
<path d="M97.4595 36.9411V38.7946H90.6484V30.3071H97.3V32.1606H93.0283V33.5962H96.7975V35.3891H93.0283V36.9411H97.4595Z" fill="#263238"/>
<path d="M102.685 36.5405H101.377V38.7944H98.9844V30.3069H102.862C103.548 30.2913 104.23 30.4212 104.862 30.6881C105.229 30.8609 105.557 31.1042 105.83 31.4041C106.102 31.704 106.313 32.0546 106.45 32.4358C106.587 32.8171 106.647 33.2216 106.628 33.6263C106.608 34.0309 106.509 34.4278 106.337 34.7942C106.295 34.8819 106.25 34.9673 106.201 35.0507C105.898 35.5223 105.466 35.8966 104.956 36.129L106.786 38.7944H104.218L102.685 36.5405ZM103.824 32.5305C103.574 32.3115 103.202 32.2025 102.707 32.2035H101.375V34.687H102.707C103.201 34.687 103.573 34.5807 103.824 34.368C103.951 34.2534 104.051 34.1116 104.116 33.9531C104.182 33.7947 104.21 33.6235 104.2 33.4524C104.21 33.2804 104.182 33.1084 104.116 32.9489C104.051 32.7893 103.951 32.6464 103.824 32.5305V32.5305Z" fill="#263238"/>
<path d="M116.485 30.3071L112.851 38.7882H110.489L106.871 30.3071H109.465L111.766 35.8325L114.111 30.3071H116.485Z" fill="#263238"/>
<path d="M117.406 30.3071H119.799V38.7882H117.406V30.3071Z" fill="#263238"/>
<path d="M123.287 38.4C122.598 38.0406 122.021 37.4973 121.622 36.8304C121.225 36.137 121.016 35.3518 121.016 34.5526C121.016 33.7535 121.225 32.9683 121.622 32.2748C122.021 31.6084 122.598 31.0657 123.287 30.7069C124.025 30.3233 124.848 30.1292 125.68 30.1422C126.4 30.1316 127.114 30.2724 127.776 30.5553C128.382 30.8177 128.915 31.2252 129.326 31.7421L127.8 33.1234C127.249 32.462 126.583 32.1308 125.801 32.1297C125.372 32.1215 124.948 32.226 124.571 32.4328C124.215 32.6305 123.924 32.9275 123.734 33.2877C123.539 33.6811 123.437 34.1143 123.437 34.5534C123.437 34.9926 123.539 35.4257 123.734 35.8191C123.924 36.179 124.215 36.476 124.571 36.6741C124.948 36.8801 125.372 36.9846 125.801 36.9772C126.585 36.9772 127.251 36.6459 127.8 35.9834L129.326 37.3648C128.915 37.8816 128.382 38.2892 127.776 38.5515C127.113 38.8339 126.399 38.9741 125.68 38.9631C124.848 38.9766 124.026 38.7831 123.287 38.4V38.4Z" fill="#263238"/>
<path d="M137.386 36.9411V38.7946H130.576V30.3071H137.228V32.1606H132.951V33.5962H136.719V35.3891H132.951V36.9411H137.386Z" fill="#263238"/>
<path d="M139.889 38.7098C139.328 38.5778 138.795 38.3477 138.313 38.0303L139.092 36.2614C139.929 36.7936 140.898 37.083 141.89 37.0972C142.812 37.0972 143.272 36.867 143.271 36.4065C143.27 36.2869 143.232 36.1707 143.161 36.074C143.091 35.9773 142.992 35.905 142.879 35.8674C142.468 35.7068 142.045 35.5834 141.612 35.4989C141.071 35.3876 140.538 35.24 140.017 35.0571C139.592 34.9005 139.213 34.64 138.915 34.2994C138.608 33.9517 138.454 33.4833 138.454 32.8941C138.449 32.3949 138.597 31.9061 138.878 31.4936C139.197 31.0497 139.636 30.7069 140.145 30.5063C140.801 30.2482 141.502 30.1261 142.207 30.1474C142.762 30.1477 143.314 30.2109 143.855 30.3356C144.359 30.4454 144.843 30.6315 145.29 30.8875L144.552 32.6676C143.836 32.2569 143.028 32.032 142.202 32.0136C141.724 32.0136 141.378 32.0854 141.159 32.2258C141.062 32.2817 140.982 32.3622 140.926 32.459C140.87 32.5559 140.84 32.6658 140.84 32.7777C140.843 32.8924 140.882 33.0033 140.952 33.0947C141.021 33.186 141.118 33.2531 141.228 33.2865C141.632 33.4418 142.05 33.5593 142.477 33.6374C143.021 33.7469 143.557 33.8945 144.081 34.0793C144.504 34.2364 144.883 34.4943 145.184 34.8306C145.495 35.1751 145.651 35.6409 145.651 36.2311C145.656 36.7238 145.507 37.2058 145.227 37.6108C144.904 38.0552 144.461 38.3983 143.951 38.5998C143.296 38.862 142.596 38.9874 141.891 38.9682C141.216 38.9686 140.543 38.8817 139.889 38.7098Z" fill="#263238"/>
</svg>
